<svg id="Laag_1" data-name="Laag 1" xmlns="http://www.w3.org/2000/svg" viewBox="0 0 281.86 86.28"><defs><style>.cls-1{fill:#fff}</style></defs><path class="cls-1" d="M60.37 71.32H65l3.5 10.29 3.32-10.29h4.63v15h-3.04V75.68l-3.71 10.6h-2.54l-3.67-10.5v10.5h-3.12zm34.72 0h3.29v15h-3.29zm21.91 0h6.45c3.88 0 6.79 2.43 6.79 7.39 0 4.34-2.22 7.57-6.79 7.57H117zm3.28 12.2h2.94c1.91 0 3.73-1.18 3.73-4.49 0-3-1-4.94-4.32-4.94h-2.35zm27.95-12.2h6.45c3.88 0 6.79 2.43 6.79 7.39 0 4.34-2.22 7.57-6.79 7.57h-6.45zm3.28 12.2h2.94c1.91 0 3.73-1.18 3.73-4.49 0-3-1.05-4.94-4.32-4.94h-2.35zm27.95-12.2h11.19v2.77h-7.9v3.2H190v2.56h-7.25v3.67h8.07v2.76h-11.36zm29.3 0H212l6.24 10v-10h3.08v15h-3.22l-6.22-10v10h-3.08z"/><path stroke="#fff" stroke-width="1.94" fill="#fff" d="M70.53 55.42h140.7"/><path class="cls-1" d="M222.82 28.5c-.44 3.1-3.43 6.17-6.16 6.3a5.1 5.1 0 0 1-3.86-1.49c-2.53-2.42-3.92-7.52-3.89-14.37 0-10.38 4.35-14.08 8.05-14.08s5.58 3.76 6 6.3v.3l4-1.27-.07-.24a11.36 11.36 0 0 0-11.25-8.58c-5 .15-12.78 5.1-12.67 17.75.11 12.29 4.78 19.08 13.16 19.12 8.1 0 10.55-8.59 10.57-8.68l.07-.25-3.94-1.11zM22 2.14L20.15 2l-.08.2-5.32 17.93a46.27 46.27 0 0 0-1.44 6.5C13 25.46 6.12 2.29 6.12 2.29h-.19A16.29 16.29 0 0 1 .35 1.15L0 1v1.71h.19c1.31.38 1.68 1.61 2.07 2.92l9.22 31.24 2 1.76.31.27 10.11-37zm45.6.15l-2.22-.47v.31l-.17 17.56v1a29.19 29.19 0 0 0 .33 5.1L49.35 1.43l-2.67.67-3.26.29.26.38L45 4.62l-.52 33.5 4.24-1s.19-24.7.19-24.93c0-1.06 0-1.74-.08-2.19l16.45 26.31 3.57 1.83.38.19.36-36.11zm212.27-.66l-2-.2-.08.21-5.09 18.92a58.43 58.43 0 0 0-1.42 6.51c-.38-1.25-7.16-24.25-7.16-24.25L261.75.37l-.37-.37s-.29 2-.3 2-4.54 17.15-4.54 17.15a70.89 70.89 0 0 0-1.65 7.85C254.37 25.63 245 1.72 245 1.72l-1.68.63-1.91.22.09.31L252.9 38l1.48.66.27.1s7-26.51 7.14-27h.17c.08.29 7.2 24.56 7.2 24.56l2.27 1.84.31.25 10.12-37zm-174.1-.23C99.52 1.4 95 9.13 95 19.79s4.54 18.38 10.79 18.38 10.79-7.73 10.79-18.38S112 1.4 105.77 1.4zm0 35.23c-3.92 0-6.76-7.1-6.76-16.89s2.84-16.89 6.76-16.89 6.77 7.1 6.77 16.89-2.86 16.89-6.79 16.89zM97.12 4l-.35-.38c-4.26 3-7.36 9.74-7.36 16S92.59 33.07 96.87 36l.34-.39c-3-3.25-4.72-9.07-4.72-15.95S94.21 7.27 97.12 4zm17.48-.33l-.34.38c2.91 3.27 4.57 9 4.57 15.75s-1.72 12.7-4.72 16l.34.39c4.28-3 7.5-10 7.5-16.34s-3.08-13.17-7.35-16.19zM183 1.89h-1.06a8 8 0 0 1-2.74-.4l-.35-.12v21.02a41.4 41.4 0 0 0 .29 5.09L162.25.3l-.25.2a6.83 6.83 0 0 1-2.26.87l-.34.09 23.33 37.36.23-3.88.18-33.08zm-26.63.24l-3.26.3.25.37 1.33 1.86-.52 33.5 4.3-1.06s.2-24.65.2-24.88c0-1.05 0-1.73-.08-2.18L175 36.34l3.58 1.84.84.42z"/></svg>